<?xml version="1.0" encoding="utf-8"?>
<!-- Generator: Adobe Illustrator 22.1.0, SVG Export Plug-In . SVG Version: 6.00 Build 0)  -->
<svg version="1.1" id="Calque_1" xmlns="http://www.w3.org/2000/svg" xmlns:xlink="http://www.w3.org/1999/xlink" x="0px" y="0px"
	 viewBox="0 0 135 131" style="enable-background:new 0 0 135 131;" xml:space="preserve">
<path d="M68.2,2C33.7,2,5.8,29.9,5.8,64.4s27.9,62.4,62.4,62.4s62.4-27.9,62.4-62.4S102.6,2,68.2,2z M32,64.8
	c-0.8,1.7-2,2.1-3.8,1.4c-6.6-2.4-6.9-2.9-3.9-9.2c3.5-7.5,7.1-14.9,10.6-22.3c0.6-1.3,1.3-2.7,3.6-2.3c1.8,0.5,3.9,1.4,5.7,2.7
	c1.4,1.1,0.8,2.4,0.2,3.7c-3.1,6.6-6.2,13.1-9.4,19.7C34,60.6,33,62.7,32,64.8z M96.7,82.2c-1.6,0.6-2.6,1.5-3,3.2
	c-0.6,2.2-2.2,3.4-4.4,3.7c-1.5,0.2-2.5,0.8-3.2,2.2c-1.4,3-3.8,3.8-6.7,2.9c-1.7-0.5-3-0.4-4.2,0.9c-0.6,0.6-1.4,1.2-2.2,1.3
	c-3.8,0.4-7.5-0.9-11.3,0.1c-2.1-2.7-4.8-3.4-8.1-3.5c-2.2-0.1-2.1-3.4-3.6-4.5c-1.5-1.1-4.5,0.2-5.5-1.9c-1.3-3-3.3-4-6.3-4.6
	c-2.9-0.6-3.7-4.4-1.5-6.9c1.9-2.2,2.4-4,0-6.1c-1-0.9-1.1-2.2-0.1-3.1c1.3-1.2,1.9,0.4,2.4,1.1c1.2,1.4,2.4,2.2,4.5,1.8
	c2.8-0.5,5.1,1.6,5.2,4.6c0.1,1.6,0.5,2.1,2.1,2.3c3.2,0.3,3.5,3.4,5.2,5.2c1.4,1.5,5.1,0.8,6,3.7c0.6,1.9,1.5,2.9,3.5,3.3
	c1.8,0.4,2.5,2,2.8,3.7c0.3,2,1.7,2.4,3.4,2.2c0.9-0.1,1.7-0.6,1.9-1.6c0.3-0.9-0.4-1.4-1-1.9c-1.4-1.1-2.9-2-4.2-3.2
	c-1.1-0.9-3.5-1.6-2.4-3.3c1.2-1.7,2.7,0.3,3.9,1.1c2.4,1.6,4.8,3.3,7.2,5c0.7,0.5,1.4,1,2.2,1.4c1.5,0.7,2.9,0.7,3.9-0.7
	c1-1.5,0.4-2.8-0.9-3.8c-2.8-2.1-5.6-4.2-8.5-6.2c-0.9-0.6-1.8-1.2-2.6-1.9c-0.8-0.7-2.3-1.5-1.3-2.8c1-1.2,2.1-0.2,3.1,0.5
	c4.1,2.9,8.2,5.9,12.4,8.8c1.7,1.2,3.5,2.3,5,0c1.3-2-0.1-3.4-1.7-4.6c-4.1-2.9-8.2-5.9-12.3-8.8c-0.8-0.6-1.6-1.1-2.3-1.8
	c-0.7-0.6-1.4-1.3-0.8-2.3c0.7-1.1,1.8-0.5,2.5,0c4.3,3,8.6,6.1,12.9,9.1c1.3,0.9,2.5,1.8,3.9,2.6c1.8,1,3.4,0.6,4.6-1
	c1.2-1.6,0.8-3.2-0.6-4.4c-3.2-2.9-6.4-5.7-9.6-8.5C82,61,77.2,56.7,72.3,52.4c-3.6-3.1-7.9-2-9.3,2.6c-1.3,4.3-3.7,7.3-8.4,7.8
	c-3.1,0.4-6-1.5-4.2-5.3c1.6-3.4,0.8-7.5,2.6-11c0.7-1.4-1.1-1.3-2.1-1.5c-1.1-0.3-3.2,0.7-3.1-1.5c0.1-1.8,1.8-2.1,3.3-2.1
	c5,0.2,9.9-0.1,14.5-2.2c1.7-0.8,3.6-0.7,5.5-0.7c5.7,0.1,11,2.6,16.6,3.2c1.1,0.1,1.5,1.1,2,2C93,50.8,96.5,57.9,99.9,65
	c0.3,0.6,0.8,1.5,0.6,1.9c-1.5,3.2-0.3,6.1,0.2,9.2C101.1,79.1,99.3,81.1,96.7,82.2z M112.2,64.2c-0.2,0.1-0.3,0.2-0.5,0.3
	c-5.8,3.2-6.2,3.1-9-2.8c-3.5-7.3-7-14.7-10.5-22.1c-1.7-3.7-1.5-4.3,2.2-6c1.3-0.6,2.7-1.1,3.5-1.4c1.8,0,2.5,0.8,3,1.8
	c4.2,8.8,8.4,17.7,12.7,26.5C114.3,62.2,113.8,63.3,112.2,64.2z"/>
	
</svg>
