<?xml version="1.0" encoding="utf-8"?>
<!-- Generator: Adobe Illustrator 22.1.0, SVG Export Plug-In . SVG Version: 6.00 Build 0)  -->
<svg version="1.1" id="Calque_1" xmlns="http://www.w3.org/2000/svg" xmlns:xlink="http://www.w3.org/1999/xlink" x="0px" y="0px"
	 viewBox="0 0 135 131" style="enable-background:new 0 0 135 131;" xml:space="preserve">
<style type="text/css">
	.st0{fill:#6DAFC9;}
</style>
<g>
	<path class="st0" d="M72.3,80.1c-2.1-0.1-3.2-1.5-3.9-3.3c-1.8,2.6-1.8,2.6-4.9,3.6c1.6,1.2,2.6,2.4,2,4.4
		c-0.3,0.9,0.5,0.9,1.1,0.5c1.2-0.8,2.3-0.7,3.5,0c0.8,0.5,1.4,0.1,1.1-0.8c-0.4-1.5,0.1-2.5,1.2-3.5C72.6,80.9,73.1,80.2,72.3,80.1
		z"/>
	<path class="st0" d="M82.3,76.8c-0.8,1.9-1.8,3.1-3.8,3.3c-0.5,0-0.7,0.5-0.3,0.8c1.8,1.2,1.4,3,1.2,5.5c2-2.2,3.9-1.8,5.9-0.7
		c-0.8-2.3,0.2-3.9,2.3-5.6C84.7,80.2,83.1,79.1,82.3,76.8z"/>
	<path class="st0" d="M58,80.1c-2-0.1-2.9-1.5-4-3.3c-0.4,2.7-2.6,3-5,3.5c2.2,1.5,2.8,3.1,2.2,5.4c2-1.3,3.8-1.2,5.8,0.1
		c-0.4-2-0.4-3.7,1.3-4.9C58.7,80.6,58.5,80.1,58,80.1z"/>
	<path class="st0" d="M36.9,79.9c-0.2-0.1-0.5,0.1-0.8,0.2c-0.5,0.2-0.7,0.6-0.3,0.8c1.8,1.2,1.4,3,1.2,5.3c2-2,3.8-1.6,6.2-0.1
		c-1-2.7-0.3-4.3,1.8-5.8c-2-0.6-3.3-1.1-4.6-2.4C38.9,76.3,38.9,80.6,36.9,79.9z"/>
	<path class="st0" d="M68.2,3.5C33.8,3.5,5.9,31.4,5.9,65.9s27.9,62.4,62.4,62.4s62.4-27.9,62.4-62.4S102.7,3.5,68.2,3.5z
		 M106.6,51.8c1,1.1,0.2,2.1-0.6,2.8c-2.5,2.3-5.2,4.2-8.3,5.6c-1.8,0.8-3.1,1.9-3.5,3.7c-0.8,3.3-2.8,4.3-5.9,3.8
		c-0.4-0.1-0.9,0-1.4,0c-1.1,0-2.2,0-3.4,0c-2.3,0-2.3,0-1.7-2.2c0.6-2.1,1.1-4.2,1.8-6.3c0.4-1.3,0.5-2.6-0.3-3.8
		c-1.1-1.7-0.2-3,1-4.1c0.5-0.5,0.9-0.6,1.2,0.1c0.2,0.4,0.3,0.7,0.4,1.1c0.8,3.9,4.1,4.6,7.2,5.6c0.7,0.2,1.4-0.2,2.1-0.5
		c3.1-1.4,5.9-3.4,8.6-5.6C104.6,51.3,105.6,50.7,106.6,51.8z M92.4,48.8c2.1,0.1,3.4,1.5,3.3,3.6c-0.1,2-1.7,3.5-3.6,3.4
		c-1.8-0.1-3.5-1.8-3.4-3.7C88.7,50.3,90.4,48.8,92.4,48.8z M68.4,38.9c2.9,0.1,5.2,2.5,5.1,5.4c-0.1,2.9-2.6,5.2-5.4,5.1
		c-2.9-0.1-5.2-2.5-5.1-5.4C63,41.1,65.4,38.9,68.4,38.9z M48.9,36.1c1.2-0.6,2.3-0.1,3,0.8c0.9,1.3,1.7,2.7,2.5,4
		c2.2,3.4,4.7,6.7,7.6,9.6c1,1,2.1,1.5,3.5,1.5c0.9,0,1.9-0.1,2.8,0c3.8,0.7,6.4-1.2,8.6-4c2.4-3.1,4.8-6.1,6.7-9.5
		c0.3-0.6,0.7-1.2,1.1-1.6c0.8-0.8,1.7-1.2,2.8-0.7c1.1,0.5,1.5,1.4,1.5,2.6c0,1.2-0.7,2.1-1.3,3.1c-2.7,4.6-5.9,8.8-9.6,12.5
		c-1,1-1.3,2-1.4,3.3c-0.1,2.8-0.4,5.5-0.6,8.3c-0.1,1.4-0.7,2-2.2,1.9c-2-0.1-4,0-5.9,0c-1.9,0-3.8,0-5.7,0c-1.2,0-1.8-0.5-1.9-1.7
		c-0.2-2.8-0.5-5.6-0.6-8.5c-0.1-1.4-0.5-2.5-1.5-3.5c-3.8-3.7-6.9-8-9.6-12.5c-0.5-0.8-1-1.7-1.1-2.7
		C47.4,37.7,47.8,36.7,48.9,36.1z M44.5,48.8c1.8,0.1,3.4,1.7,3.3,3.5c-0.1,1.9-1.8,3.6-3.6,3.5c-2,0-3.5-1.7-3.4-3.8
		C40.9,50,42.3,48.7,44.5,48.8z M29.9,51.8c0.9-1,1.9-0.6,2.8,0.1c2.6,2.1,5.3,4.1,8.4,5.5c2.7,1.3,7.4-0.3,8.8-3
		c0.2-0.5,0.4-1,0.7-1.4c0.4-0.7,0.3-2.3,1.4-1.8c1,0.4,2.4,1.7,1.8,3c-2.2,4.2,0.2,7.8,1.1,11.6c0.4,1.7,0.1,2.2-1.5,2.1
		c-1.2-0.1-2.4,0-3.6,0c-4.2,1.1-6.8-0.6-7.8-4.8c-0.3-1.2-1.2-1.8-2.3-2.3c-3.4-1.6-6.4-3.6-9.1-6.1C29.6,53.8,29,52.9,29.9,51.8z
		 M109.1,83.9c0,5.3-2.7,8-8.1,8c-17.7,0-35.5,0-53.2,0c-4.2,0-8.4,0-12.7,0c-5.1,0-7.8-2.8-7.8-7.9c0-1.8,0-3.7,0-5.5
		c0.1-5,2.9-7.8,7.9-7.8c11,0,22,0,33,0c10.8,0,21.6,0,32.4,0c5.8,0,8.4,2.7,8.4,8.5C109.1,80.7,109.1,82.3,109.1,83.9z"/>
	<path class="st0" d="M100.3,80.1c-1.5-0.2-2.7-0.9-3.3-2.4c-0.1-0.4-0.7-0.6-0.9-0.1c-0.7,2-2.5,2.3-4.7,2.9
		c2.1,1.4,2.8,3.1,1.8,5.7c2.3-1.5,4.1-1.9,6.1,0.1c-0.2-2.3-0.6-4.1,1.2-5.3C101,80.6,100.8,80.1,100.3,80.1z"/>
</g>
</svg>
