<?xml version="1.0" encoding="utf-8"?>
<!-- Generator: Adobe Illustrator 22.1.0, SVG Export Plug-In . SVG Version: 6.00 Build 0)  -->
<svg version="1.1" id="Calque_1" xmlns="http://www.w3.org/2000/svg" xmlns:xlink="http://www.w3.org/1999/xlink" x="0px" y="0px"
	 viewBox="0 0 135 131" style="enable-background:new 0 0 135 131;" xml:space="preserve">
<style type="text/css">
	.st0{fill:#95C11F;}
</style>
<g>
	<path class="st0" d="M85.9,51.1c0.1-10.6-8.4-20.3-20.2-20.4c-11.2,0-20.3,8.8-20.3,20.3c0,11.4,9.4,20.3,20.3,20.2
		C76.6,71.3,85.8,62.3,85.9,51.1z M65.6,68.7c-9.7,0-17.8-8.1-17.7-17.7c-0.1-9.7,8-17.7,17.6-17.7c9.6,0,17.7,7.9,17.7,17.7
		C83.3,60.7,75.4,68.7,65.6,68.7z"/>
	<path class="st0" d="M59.3,56.1c0-1.6,0-3.3,0-4.9c0-0.5-0.2-0.8-0.7-0.8c-1.5,0-3,0-4.5,0c-0.5,0-0.7,0.2-0.7,0.7
		c0,1.6-0.1,3.2,0,4.8c0.1,1.8,0.6,3.5,1.2,5.1c0.2,0.4,0.4,0.6,0.9,0.6c1,0,2,0,2.9,0c0.6,0,0.9-0.2,0.9-0.8
		C59.3,59.3,59.3,57.7,59.3,56.1z M57.3,60.3c-0.4,0-0.7-0.3-0.7-0.8c0-0.5,0.3-0.7,0.7-0.7c0.5,0,0.8,0.2,0.8,0.7
		C58,59.9,57.8,60.2,57.3,60.3z"/>
	<path class="st0" d="M77.7,49.5c-0.1-1.3-0.9-2.2-2.2-2.1c-1.7,0.1-3.4,0.1-5.1,0.3c-0.5,0.1-1,0-1.3-0.4c-0.3-0.4,0-0.8,0.2-1.2
		c0-0.1,0.1-0.2,0.1-0.3c0.8-1.3,1.3-2.6,1.8-4c0.6-1.6-0.1-3.7-1.5-4.6c-0.9-0.6-1.7-0.3-1.9,0.8c0,0.2-0.1,0.4-0.1,0.6
		c0,2.2-0.8,3.9-2.5,5.4c-1,0.9-1.8,2-2.3,3.3c-0.6,1.4-1.3,2.6-2.4,3.6c-0.3,0.3-0.4,0.5-0.4,0.9c0,1.4,0,2.8,0,4.3c0,0,0,0,0,0
		c0,1.5,0,3,0,4.5c0,0.1-0.1,0.4,0.2,0.4c1.3-0.2,2.5,0.3,3.6,0.7c1.3,0.4,2.6,0.9,3.9,1.1c1.9,0.2,3.7,0.1,5.6,0.1
		c0.6,0,1.1-0.4,1.4-0.8c0.6-0.8,1.1-1.6,0.9-2.7c-0.1-0.4,0.1-0.6,0.4-0.8c0.6-0.4,1-1,0.9-1.7c-0.2-1,0-1.9,0.4-2.8
		c0.1-0.2,0.1-0.5,0.2-0.8c0.1-0.3,0-0.6-0.2-0.8c-0.3-0.3-0.2-0.6-0.1-0.9C77.5,50.7,77.7,50.1,77.7,49.5z"/>
	<path class="st0" d="M66.8,3C32.3,3,4.4,30.9,4.4,65.4s27.9,62.4,62.4,62.4s62.4-27.9,62.4-62.4S101.2,3,66.8,3z M62.9,86.5
		c-0.7,1.5-1.3,3.1-2,4.6c-2.3,5.3-4.6,10.5-6.9,15.8c-0.1,0.2-0.1,0.3-0.3,0.4c-0.2-0.2-0.2-0.5-0.3-0.8c-1.3-4.2-2.5-8.4-3.7-12.6
		c-0.3-0.9-0.3-0.9-1.1-0.5c-3.8,1.8-7.6,3.6-11.5,5.4c-0.3,0.2-0.7,0.3-1.1,0.5c0.1-0.6,0.3-0.9,0.5-1.3c2.8-6.2,5.6-12.3,8.3-18.5
		c0.2-0.6,0.4-0.5,0.9-0.2C50.4,83,56,85,62.1,85.8c0.1,0,0.3,0,0.4,0.1C63,85.9,63.1,86.1,62.9,86.5z M64.7,77.5
		c-1.3,1.3-2.9,1.6-4.7,1.2c-1.7-0.4-3.4-0.8-4.9-1.7c-0.8-0.5-1.4-1.2-1.8-2.1c-0.7-2-1.9-3.6-3.6-4.8c-1.2-0.8-2.4-1.3-3.8-1.5
		c-3.3-0.5-6-3.6-6.1-7c0-0.8,0.2-1.6,0.5-2.4c0.7-2.2,1-4.5,0.3-6.8c-0.3-1-0.8-1.8-1.3-2.7c-0.7-1.1-1.4-2.3-1.4-3.6
		c0-2.3,0.8-5.1,3.4-6.3c3.8-1.7,5.9-4.9,7-8.7c0-0.1,0.1-0.3,0.1-0.4c0.7-2.8,3-4.8,5.9-5.1c1-0.1,1.9,0.2,2.8,0.5
		c2.5,0.8,5,0.8,7.5-0.1c1-0.4,1.9-1,2.9-1.5c2.7-1.6,6.6-1.1,8.7,1.1c0.8,0.8,1.2,1.8,1.7,2.7c1.3,2.4,3.2,3.9,5.7,4.7
		c0.9,0.3,1.8,0.5,2.6,0.8c2.9,1,4.6,3.3,4.6,5.9c0,1.7-0.4,3-0.6,4.3c-0.3,2.2-0.3,4.3,0.6,6.4c0.3,0.7,0.7,1.4,1.2,2
		c0.9,1.3,1.5,2.6,1.2,4.2c-0.3,2.2-0.9,4.4-2.9,5.7c-0.6,0.4-1.2,0.7-1.8,1c-2.5,1.2-4,3.2-4.7,5.9c-0.2,0.6-0.3,1.2-0.4,1.8
		c-0.3,1.5-1.2,2.8-2.4,3.7c-0.6,0.4-1.2,0.8-1.8,1.1c-1.6,0.9-3.2,1.1-4.8,0.3c-2.5-1-4.9-1-7.4-0.1C66.1,76.4,65.4,76.9,64.7,77.5
		z M95.2,98.2c-3.5-1.6-6.9-3.3-10.4-4.9C84.2,93,84.2,93,84,93.7c-1.3,4.3-2.6,8.7-3.9,13c-0.1,0.2,0,0.4-0.3,0.6
		c-0.4-1-0.9-2-1.3-3c-2.6-6.1-5.3-12.2-7.9-18.2c-0.2-0.6-0.1-0.7,0.4-0.8c2.8-0.4,5.6-1,8.3-2.1c3-1.2,5.8-2.9,8.5-4.8
		c0.8-0.6,0.8-0.5,1.1,0.3c2.8,6.5,5.6,13,8.4,19.6c0.1,0.3,0.3,0.6,0.3,1C96.8,98.9,96,98.6,95.2,98.2z"/>
</g>
</svg>
