<?xml version="1.0" encoding="utf-8"?>
<!-- Generator: Adobe Illustrator 22.1.0, SVG Export Plug-In . SVG Version: 6.00 Build 0)  -->
<svg version="1.1" id="Calque_1" xmlns="http://www.w3.org/2000/svg" xmlns:xlink="http://www.w3.org/1999/xlink" x="0px" y="0px"
	 viewBox="0 0 113.7 45.3" style="enable-background:new 0 0 113.7 45.3; " xml:space="preserve">
<g>
	<g>
		<g>
			<g>
				<g>
					<path d="M59.6,38.9c-0.1,0-0.2,0-0.4-0.1S59,38.7,59,38.6c-0.1-0.1-0.2-0.2-0.2-0.3c0-0.1-0.1-0.2-0.1-0.4v-1.9
						c0-0.1,0-0.2,0.1-0.4c0-0.1,0.1-0.2,0.2-0.3c0.1-0.1,0.2-0.1,0.3-0.2s0.2-0.1,0.4-0.1h3.1c0.1,0,0.2,0,0.4,0.1
						c0.1,0,0.2,0.1,0.3,0.2c0.1,0.1,0.2,0.2,0.2,0.3c0,0.1,0.1,0.2,0.1,0.4v0.8h-0.9v-0.8h-3.1V38h3.1c0.1,0,0.2,0,0.4,0.1
						c0.1,0,0.2,0.1,0.3,0.2s0.2,0.2,0.2,0.3c0,0.1,0.1,0.2,0.1,0.4v1.8c0,0.1,0,0.2-0.1,0.4c0,0.1-0.1,0.2-0.2,0.3
						s-0.2,0.2-0.3,0.2c-0.1,0-0.2,0.1-0.4,0.1h-3.2c-0.1,0-0.2,0-0.4-0.1c-0.1,0-0.2-0.1-0.3-0.2s-0.2-0.2-0.2-0.3
						c0-0.1-0.1-0.2-0.1-0.4v-0.8h0.9v0.8h3.2v-1.8H59.6z"/>
					<path d="M66.2,35.2l1.9,3l1.9-3H71l-2.5,3.9v2.6h-0.9v-2.6l-2.5-3.9H66.2z"/>
					<path d="M73.4,38.9c-0.1,0-0.2,0-0.4-0.1c-0.1,0-0.2-0.1-0.3-0.2c-0.1-0.1-0.2-0.2-0.2-0.3c0-0.1-0.1-0.2-0.1-0.4v-1.9
						c0-0.1,0-0.2,0.1-0.4c0-0.1,0.1-0.2,0.2-0.3c0.1-0.1,0.2-0.1,0.3-0.2c0.1,0,0.2-0.1,0.4-0.1h3.1c0.1,0,0.2,0,0.4,0.1
						c0.1,0,0.2,0.1,0.3,0.2c0.1,0.1,0.2,0.2,0.2,0.3c0,0.1,0.1,0.2,0.1,0.4v0.8h-0.9v-0.8h-3.1V38h3.1c0.1,0,0.2,0,0.4,0.1
						c0.1,0,0.2,0.1,0.3,0.2s0.2,0.2,0.2,0.3c0,0.1,0.1,0.2,0.1,0.4v1.8c0,0.1,0,0.2-0.1,0.4s-0.1,0.2-0.2,0.3s-0.2,0.2-0.3,0.2
						c-0.1,0-0.2,0.1-0.4,0.1h-3.2c-0.1,0-0.2,0-0.4-0.1c-0.1,0-0.2-0.1-0.3-0.2s-0.2-0.2-0.2-0.3c0-0.1-0.1-0.2-0.1-0.4v-0.8h0.9
						v0.8h3.2v-1.8H73.4z"/>
					<path d="M78.9,35.2h5.2v0.9H82v5.6h-0.9v-5.6h-2.1V35.2z"/>
					<path d="M85.6,35.2h4.7v0.9h-3.8V38h3.2v0.9h-3.2v1.8h3.8v0.9h-4.7V35.2z"/>
					<path d="M95.5,41.7L93,36.9v4.7h-0.9v-6.5h1l2.5,4.9l2.5-4.9h1v6.5h-0.9v-4.7l-2.4,4.7H95.5z"/>
					<path d="M102.1,38.9c-0.1,0-0.2,0-0.4-0.1c-0.1,0-0.2-0.1-0.3-0.2c-0.1-0.1-0.2-0.2-0.2-0.3c0-0.1-0.1-0.2-0.1-0.4v-1.9
						c0-0.1,0-0.2,0.1-0.4c0-0.1,0.1-0.2,0.2-0.3c0.1-0.1,0.2-0.1,0.3-0.2c0.1,0,0.2-0.1,0.4-0.1h3.1c0.1,0,0.2,0,0.4,0.1
						s0.2,0.1,0.3,0.2c0.1,0.1,0.2,0.2,0.2,0.3c0,0.1,0.1,0.2,0.1,0.4v0.8h-0.9v-0.8h-3.1V38h3.1c0.1,0,0.2,0,0.4,0.1
						s0.2,0.1,0.3,0.2s0.2,0.2,0.2,0.3c0,0.1,0.1,0.2,0.1,0.4v1.8c0,0.1,0,0.2-0.1,0.4c0,0.1-0.1,0.2-0.2,0.3s-0.2,0.2-0.3,0.2
						c-0.1,0-0.2,0.1-0.4,0.1H102c-0.1,0-0.2,0-0.4-0.1c-0.1,0-0.2-0.1-0.3-0.2s-0.2-0.2-0.2-0.3c0-0.1-0.1-0.2-0.1-0.4v-0.8h0.9
						v0.8h3.2v-1.8H102.1z"/>
				</g>
			</g>
		</g>
		<g>
			<path d="M77.5,31.6H63.2c-0.4,0-0.8,0-1.2-0.1c-0.4-0.1-0.8-0.2-1.2-0.4c-0.4-0.2-0.8-0.4-1.2-0.7c-0.4-0.3-0.7-0.6-1-1
				c-0.3-0.4-0.5-0.9-0.7-1.4c-0.2-0.5-0.3-1.1-0.3-1.8V15.4c0-0.4,0-0.8,0.1-1.2c0.1-0.4,0.2-0.8,0.4-1.2c0.2-0.4,0.4-0.8,0.7-1.2
				c0.3-0.4,0.6-0.7,1.1-1c0.4-0.3,0.9-0.5,1.4-0.7c0.5-0.2,1.1-0.3,1.8-0.3h14.2l-1.5,3.9H63.2c-0.5,0-0.9,0.1-1.2,0.4
				c-0.3,0.3-0.4,0.7-0.4,1.2v10.6c0,0.5,0.1,0.9,0.4,1.2c0.3,0.3,0.7,0.4,1.2,0.4H76L77.5,31.6z"/>
			<path d="M87.1,31.6h-3.9V9.9h3.9V31.6z M105.9,31.6h-5.6l-8.9-8.9h-3.3l1.5-4h1.7l8.9-8.9h5.6L94.8,20.7L105.9,31.6z"/>
		</g>
		<path d="M47.1,31.6H35.3c-0.4,0-0.8,0-1.2-0.1c-0.4-0.1-0.8-0.2-1.2-0.4c-0.4-0.2-0.8-0.4-1.2-0.7c-0.4-0.3-0.7-0.6-1-1
			c-0.3-0.4-0.5-0.9-0.7-1.4c-0.2-0.5-0.3-1.1-0.3-1.8V15.4c0-0.4,0-0.8,0.1-1.2c0.1-0.4,0.2-0.8,0.4-1.2c0.2-0.4,0.4-0.8,0.7-1.2
			c0.3-0.4,0.6-0.7,1.1-1c0.4-0.3,0.9-0.5,1.4-0.7c0.5-0.2,1.1-0.3,1.8-0.3h11.7v3.9H35.3c-0.5,0-0.9,0.1-1.2,0.4
			c-0.3,0.3-0.4,0.7-0.4,1.2v10.6c0,0.5,0.1,0.9,0.4,1.2c0.3,0.3,0.7,0.4,1.2,0.4h11.7V31.6z"/>
		<path d="M34.8,27.7h11.7c0.5,0,0.9-0.1,1.2-0.4c0.3-0.3,0.4-0.7,0.4-1.2V15.4c0-0.5-0.1-0.9-0.4-1.2c-0.3-0.3-0.7-0.4-1.2-0.4
			H34.8V9.9h11.7c0.7,0,1.3,0.1,1.8,0.3c0.5,0.2,1,0.4,1.4,0.7c0.4,0.3,0.8,0.6,1.1,1c0.3,0.4,0.5,0.8,0.7,1.2
			c0.2,0.4,0.3,0.8,0.4,1.2c0.1,0.4,0.1,0.8,0.1,1.2v10.7c0,0.7-0.1,1.3-0.3,1.8c-0.2,0.5-0.4,1-0.7,1.4c-0.3,0.4-0.6,0.8-1,1
			c-0.4,0.3-0.8,0.5-1.2,0.7c-0.4,0.2-0.8,0.3-1.2,0.4c-0.4,0.1-0.8,0.1-1.2,0.1H34.8V27.7z"/>
		<path d="M17.8,25.2L17.8,25.2L17.8,25.2L17,24.5c0,0,0,0,0,0h1.8c0.4,0,0.8,0,1.2-0.1c0.4-0.1,0.8-0.2,1.2-0.4
			c0.4-0.2,0.8-0.4,1.2-0.7c0.4-0.3,0.7-0.6,1-1c0.3-0.4,0.5-0.9,0.7-1.4c0.2-0.5,0.3-1.1,0.3-1.8V16v-1.3v-0.1c0-0.5-0.1-1-0.2-1.6
			s-0.4-1.1-0.8-1.6c-0.4-0.5-0.9-0.9-1.5-1.2c-0.6-0.3-1.3-0.5-2.2-0.5H4.6c-0.3,0-0.5,0.1-0.8,0.2c-0.2,0.1-0.5,0.2-0.6,0.4
			c-0.2,0.2-0.3,0.4-0.4,0.6c-0.1,0.2-0.2,0.5-0.2,0.8v19.7h3.9V13.8h13c0.1,0,0.2,0,0.3,0c0.1,0,0.2,0,0.3,0.1
			c0.1,0.1,0.2,0.1,0.2,0.3c0.1,0.1,0.1,0.3,0.1,0.5v0.1v2V19c0,0.5-0.1,0.9-0.4,1.2c-0.3,0.3-0.7,0.4-1.2,0.4h-8.3v0H9.6l-1.5,3.9
			H11l8.2,7.1h6.1L17.8,25.2z"/>
	</g>
	<g>
		<path d="M107.4,5.5L107.4,5.5L107.4,5.5l-0.1-0.1c0,0,0,0,0,0h0.3c0.1,0,0.1,0,0.2,0c0.1,0,0.1,0,0.2-0.1c0.1,0,0.1-0.1,0.2-0.1
			c0.1,0,0.1-0.1,0.2-0.2c0-0.1,0.1-0.1,0.1-0.2c0-0.1,0-0.2,0-0.3V4.1V3.9v0c0-0.1,0-0.2,0-0.2c0-0.1-0.1-0.2-0.1-0.2
			c-0.1-0.1-0.1-0.1-0.2-0.2c-0.1,0-0.2-0.1-0.3-0.1h-2.3c0,0-0.1,0-0.1,0c0,0-0.1,0-0.1,0.1c0,0,0,0.1-0.1,0.1c0,0,0,0.1,0,0.1v3
			h0.6V3.7h2c0,0,0,0,0,0c0,0,0,0,0,0c0,0,0,0,0,0c0,0,0,0,0,0.1v0v0.3v0.3c0,0.1,0,0.1-0.1,0.2c0,0-0.1,0.1-0.2,0.1h-1.3v0h-0.1
			l-0.2,0.6h0.4l1.2,1.1h0.9L107.4,5.5z"/>
		<g>
			<path d="M109.7,4.8h-0.3c0,0.7-0.3,1.4-0.8,1.9c-0.5,0.5-1.2,0.8-1.9,0.8c-0.7,0-1.4-0.3-1.9-0.8c-0.5-0.5-0.8-1.2-0.8-1.9
				c0-0.7,0.3-1.4,0.8-1.9c0.5-0.5,1.2-0.8,1.9-0.8c0.7,0,1.4,0.3,1.9,0.8c0.5,0.5,0.8,1.2,0.8,1.9H109.7h0.3c0-1.8-1.5-3.3-3.3-3.3
				c-1.8,0-3.3,1.5-3.3,3.3c0,1.8,1.5,3.3,3.3,3.3c1.8,0,3.3-1.5,3.3-3.3H109.7z"/>
		</g>
	</g>
</g>
</svg>
