<?xml version="1.0" encoding="utf-8"?>
<!-- Generator: Adobe Illustrator 22.1.0, SVG Export Plug-In . SVG Version: 6.00 Build 0)  -->
<svg xmlns="http://www.w3.org/2000/svg" x="0px" y="0px"
                    width="50" height="50"
                    viewBox="0 0 224 224"
                    style=" fill:#000000;"><g fill="none" fill-rule="nonzero" stroke="none" stroke-width="1" stroke-linecap="butt" stroke-linejoin="miter" stroke-miterlimit="10" stroke-dasharray="" stroke-dashoffset="0" font-family="none" font-weight="none" font-size="none" text-anchor="none" style="mix-blend-mode: normal"><path d="M0,224v-224h224v224z" fill="none"></path><g fill="#ffffff"><g id="surface1"><path d="M67.1475,17.885c-1.82,0 -3.4475,1.1025 -4.1475,2.7825c-0.6825,1.6975 -0.28,3.6225 1.0325,4.9l86.4325,86.4325l-86.4325,86.4325c-1.1725,1.12 -1.645,2.8 -1.225,4.3575c0.4025,1.575 1.6275,2.8 3.2025,3.2025c1.5575,0.42 3.2375,-0.0525 4.3575,-1.225l89.6,-89.6c1.75,-1.75 1.75,-4.585 0,-6.335l-89.6,-89.6c-0.84,-0.875 -1.995,-1.3475 -3.22,-1.3475z"></path></g></g></g></svg>
                