<?xml version="1.0" encoding="utf-8"?>
<!-- Generator: Adobe Illustrator 22.1.0, SVG Export Plug-In . SVG Version: 6.00 Build 0)  -->
<svg xmlns="http://www.w3.org/2000/svg" x="0px" y="0px"
width="50" height="50"
viewBox="0 0 224 224"
style=" fill:#000000;"><g fill="none" fill-rule="nonzero" stroke="none" stroke-width="1" stroke-linecap="butt" stroke-linejoin="miter" stroke-miterlimit="10" stroke-dasharray="" stroke-dashoffset="0" font-family="none" font-weight="none" font-size="none" text-anchor="none" style="mix-blend-mode: normal"><path d="M0,224v-224h224v224z" fill="none"></path><g fill="#ffffff"><g id="surface1"><path d="M156.7125,17.885c-1.1725,0.0175 -2.275,0.5075 -3.08,1.3475l-89.6,89.6c-1.75,1.75 -1.75,4.585 0,6.335l89.6,89.6c1.12,1.1725 2.8,1.645 4.3575,1.225c1.575,-0.4025 2.8,-1.6275 3.2025,-3.2025c0.42,-1.5575 -0.0525,-3.2375 -1.225,-4.3575l-86.4325,-86.4325l86.4325,-86.4325c1.33,-1.295 1.715,-3.255 0.9975,-4.9525c-0.7175,-1.715 -2.3975,-2.8 -4.2525,-2.73z"></path></g></g></g></svg>
                